<?xml version="1.0" encoding="UTF-8"?>
<!DOCTYPE svg PUBLIC "-//W3C//DTD SVG 1.1//EN" "http://www.w3.org/Graphics/SVG/1.1/DTD/svg11.dtd">
<svg version="1.2" width="700px" height="494px" viewBox="0 0 29700 21000" preserveAspectRatio="xMidYMid" fill-rule="evenodd" clip-path="url(#presentation_clip_path)" stroke-width="28.222" stroke-linejoin="round" xmlns="http://www.w3.org/2000/svg" xmlns:ooo="http://xml.openoffice.org/svg/export" xmlns:xlink="http://www.w3.org/1999/xlink" xml:space="preserve">
 <defs class="ClipPathGroup">
  <clipPath id="presentation_clip_path" clipPathUnits="userSpaceOnUse">
   <rect x="0" y="0" width="29700" height="21000"/>
  </clipPath>
 </defs>
 <defs class="TextShapeIndex">
  <g ooo:slide="id1" ooo:id-list="id3 id4 id5 id6 id7 id8 id9 id10 id11 id12 id13 id14 id15 id16 id17 id18 id19 id20 id21 id22 id23 id24 id25 id26 id27 id28 id29 id30 id31 id32 id33 id34"/>
 </defs>
 <defs class="EmbeddedBulletChars">
  <g id="bullet-char-template(57356)" transform="scale(0.00048828125,-0.00048828125)">
   <path d="M 580,1141 L 1163,571 580,0 -4,571 580,1141 Z"/>
  </g>
  <g id="bullet-char-template(57354)" transform="scale(0.00048828125,-0.00048828125)">
   <path d="M 8,1128 L 1137,1128 1137,0 8,0 8,1128 Z"/>
  </g>
  <g id="bullet-char-template(10146)" transform="scale(0.00048828125,-0.00048828125)">
   <path d="M 174,0 L 602,739 174,1481 1456,739 174,0 Z M 1358,739 L 309,1346 659,739 1358,739 Z"/>
  </g>
  <g id="bullet-char-template(10132)" transform="scale(0.00048828125,-0.00048828125)">
   <path d="M 2015,739 L 1276,0 717,0 1260,543 174,543 174,936 1260,936 717,1481 1274,1481 2015,739 Z"/>
  </g>
  <g id="bullet-char-template(10007)" transform="scale(0.00048828125,-0.00048828125)">
   <path d="M 0,-2 C -7,14 -16,27 -25,37 L 356,567 C 262,823 215,952 215,954 215,979 228,992 255,992 264,992 276,990 289,987 310,991 331,999 354,1012 L 381,999 492,748 772,1049 836,1024 860,1049 C 881,1039 901,1025 922,1006 886,937 835,863 770,784 769,783 710,716 594,584 L 774,223 C 774,196 753,168 711,139 L 727,119 C 717,90 699,76 672,76 641,76 570,178 457,381 L 164,-76 C 142,-110 111,-127 72,-127 30,-127 9,-110 8,-76 1,-67 -2,-52 -2,-32 -2,-23 -1,-13 0,-2 Z"/>
  </g>
  <g id="bullet-char-template(10004)" transform="scale(0.00048828125,-0.00048828125)">
   <path d="M 285,-33 C 182,-33 111,30 74,156 52,228 41,333 41,471 41,549 55,616 82,672 116,743 169,778 240,778 293,778 328,747 346,684 L 369,508 C 377,444 397,411 428,410 L 1163,1116 C 1174,1127 1196,1133 1229,1133 1271,1133 1292,1118 1292,1087 L 1292,965 C 1292,929 1282,901 1262,881 L 442,47 C 390,-6 338,-33 285,-33 Z"/>
  </g>
  <g id="bullet-char-template(9679)" transform="scale(0.00048828125,-0.00048828125)">
   <path d="M 813,0 C 632,0 489,54 383,161 276,268 223,411 223,592 223,773 276,916 383,1023 489,1130 632,1184 813,1184 992,1184 1136,1130 1245,1023 1353,916 1407,772 1407,592 1407,412 1353,268 1245,161 1136,54 992,0 813,0 Z"/>
  </g>
  <g id="bullet-char-template(8226)" transform="scale(0.00048828125,-0.00048828125)">
   <path d="M 346,457 C 273,457 209,483 155,535 101,586 74,649 74,723 74,796 101,859 155,911 209,963 273,989 346,989 419,989 480,963 531,910 582,859 608,796 608,723 608,648 583,586 532,535 482,483 420,457 346,457 Z"/>
  </g>
  <g id="bullet-char-template(8211)" transform="scale(0.00048828125,-0.00048828125)">
   <path d="M -4,459 L 1135,459 1135,606 -4,606 -4,459 Z"/>
  </g>
 </defs>
 <defs class="TextEmbeddedBitmaps"/>
 <g>
  <g id="id2" class="Master_Slide">
   <g id="bg-id2" class="Background">
    <path fill="rgb(255,255,255)" stroke="none" d="M 14850,20999 L 0,20999 0,0 29699,0 29699,20999 14850,20999 Z"/>
   </g>
   <g id="bo-id2" class="BackgroundObjects"/>
  </g>
 </g>
 <g class="SlideGroup">
  <g>
   <g id="id1" class="Slide" clip-path="url(#presentation_clip_path)">
    <g class="Page">
     <g class="com.sun.star.drawing.CustomShape">
      <g id="id3">
       <path fill="rgb(0,184,255)" stroke="none" d="M 14850,21000 L 0,21000 0,19000 29700,19000 29700,21000 14850,21000 Z"/>
       <path fill="none" stroke="rgb(0,153,255)" d="M 14850,21000 L 0,21000 0,19000 29700,19000 29700,21000 14850,21000 Z"/>
       <text class="TextShape"><tspan class="TextParagraph" font-family="Arimo, sans-serif" font-size="494px" font-weight="400"><tspan class="TextPosition" x="12577" y="19894"><tspan fill="rgb(0,0,0)" stroke="none">Browser capabilities </tspan></tspan></tspan><tspan class="TextParagraph" font-family="Arimo, sans-serif" font-size="494px" font-weight="400"><tspan class="TextPosition" x="11351" y="20449"><tspan fill="rgb(0,0,0)" stroke="none">(basic, websocket, webRTC, ...)</tspan></tspan></tspan></text>
      </g>
     </g>
     <g class="com.sun.star.drawing.CustomShape">
      <g id="id4">
       <path fill="rgb(0,184,255)" stroke="none" d="M 2400,13500 L 600,13500 600,11300 4200,11300 4200,13500 2400,13500 Z"/>
       <path fill="none" stroke="rgb(0,153,255)" d="M 2400,13500 L 600,13500 600,11300 4200,11300 4200,13500 2400,13500 Z"/>
       <text class="TextShape"><tspan class="TextParagraph" font-family="Arimo, sans-serif" font-size="423px" font-weight="400"><tspan class="TextPosition" x="2002" y="12074"><tspan fill="rgb(0,0,0)" stroke="none">SIP </tspan></tspan></tspan><tspan class="TextParagraph" font-family="Arimo, sans-serif" font-size="423px" font-weight="400"><tspan class="TextPosition" x="1869" y="12548"><tspan fill="rgb(0,0,0)" stroke="none">Stack</tspan></tspan></tspan><tspan class="TextParagraph" font-family="Arimo, sans-serif" font-size="423px" font-weight="400"><tspan class="TextPosition" x="1765" y="13022"><tspan fill="rgb(0,0,0)" stroke="none">(jsSIP)</tspan></tspan></tspan></text>
      </g>
     </g>
     <g class="com.sun.star.drawing.CustomShape">
      <g id="id5">
       <path fill="rgb(0,184,255)" stroke="none" d="M 6950,13500 L 5100,13500 5100,11300 8800,11300 8800,13500 6950,13500 Z"/>
       <path fill="none" stroke="rgb(0,153,255)" d="M 6950,13500 L 5100,13500 5100,11300 8800,11300 8800,13500 6950,13500 Z"/>
       <text class="TextShape"><tspan class="TextParagraph" font-family="Arimo, sans-serif" font-size="423px" font-weight="400"><tspan class="TextPosition" x="6296" y="12074"><tspan fill="rgb(0,0,0)" stroke="none">XMPP </tspan></tspan></tspan><tspan class="TextParagraph" font-family="Arimo, sans-serif" font-size="423px" font-weight="400"><tspan class="TextPosition" x="6419" y="12548"><tspan fill="rgb(0,0,0)" stroke="none">Stack</tspan></tspan></tspan><tspan class="TextParagraph" font-family="Arimo, sans-serif" font-size="423px" font-weight="400"><tspan class="TextPosition" x="6222" y="13022"><tspan fill="rgb(0,0,0)" stroke="none">(JsJaC)</tspan></tspan></tspan></text>
      </g>
     </g>
     <g class="com.sun.star.drawing.CustomShape">
      <g id="id6">
       <path fill="rgb(0,184,255)" stroke="none" d="M 11550,13500 L 9700,13500 9700,11300 13400,11300 13400,13500 11550,13500 Z"/>
       <path fill="none" stroke="rgb(0,153,255)" d="M 11550,13500 L 9700,13500 9700,11300 13400,11300 13400,13500 11550,13500 Z"/>
       <text class="TextShape"><tspan class="TextParagraph" font-family="Arimo, sans-serif" font-size="423px" font-weight="400"><tspan class="TextPosition" x="10939" y="12074"><tspan fill="rgb(0,0,0)" stroke="none">MSRP</tspan></tspan></tspan><tspan class="TextParagraph" font-family="Arimo, sans-serif" font-size="423px" font-weight="400"><tspan class="TextPosition" x="11019" y="12548"><tspan fill="rgb(0,0,0)" stroke="none">Stack</tspan></tspan></tspan><tspan class="TextParagraph" font-family="Arimo, sans-serif" font-size="423px" font-weight="400"><tspan class="TextPosition" x="9903" y="13022"><tspan fill="rgb(0,0,0)" stroke="none">(CrocodileMSRP)</tspan></tspan></tspan></text>
      </g>
     </g>
     <g class="com.sun.star.drawing.CustomShape">
      <g id="id7">
       <path fill="none" stroke="rgb(0,153,255)" d="M 2400,13808 L 300,13808 300,6599 4500,6599 4500,13808 2400,13808 Z"/>
      </g>
     </g>
     <g class="com.sun.star.drawing.TextShape">
      <g id="id8">
       <text class="TextShape"><tspan class="TextParagraph" font-family="Arimo, sans-serif" font-size="494px" font-weight="400"><tspan class="TextPosition" x="1278" y="7174"><tspan fill="rgb(0,0,0)" stroke="none">oSDK SIP</tspan></tspan></tspan><tspan class="TextParagraph" font-family="Arimo, sans-serif" font-size="494px" font-weight="400"><tspan class="TextPosition" x="1582" y="7729"><tspan fill="rgb(0,0,0)" stroke="none">module</tspan></tspan></tspan><tspan class="TextParagraph" font-family="Arimo, sans-serif" font-size="423px" font-weight="400"><tspan class="TextPosition" x="1309" y="8775"><tspan fill="rgb(0,0,0)" stroke="none">[Media API,</tspan></tspan></tspan><tspan class="TextParagraph" font-family="Arimo, sans-serif" font-size="423px" font-weight="400"><tspan class="TextPosition" x="850" y="9249"><tspan fill="rgb(0,0,0)" stroke="none">Capabilities API]</tspan></tspan></tspan></text>
      </g>
     </g>
     <g class="com.sun.star.drawing.CustomShape">
      <g id="id9">
       <path fill="none" stroke="rgb(0,153,255)" d="M 6950,13800 L 4800,13800 4800,6600 9100,6600 9100,13800 6950,13800 Z"/>
      </g>
     </g>
     <g class="com.sun.star.drawing.TextShape">
      <g id="id10">
       <text class="TextShape"><tspan class="TextParagraph" font-family="Arimo, sans-serif" font-size="494px" font-weight="400"><tspan class="TextPosition" x="5460" y="7174"><tspan fill="rgb(0,0,0)" stroke="none">oSDK XMPP</tspan></tspan></tspan><tspan class="TextParagraph" font-family="Arimo, sans-serif" font-size="494px" font-weight="400"><tspan class="TextPosition" x="6068" y="7729"><tspan fill="rgb(0,0,0)" stroke="none">module</tspan></tspan></tspan><tspan class="TextParagraph" font-family="Arimo, sans-serif" font-size="423px" font-weight="400"><tspan class="TextPosition" x="5350" y="8775"><tspan fill="rgb(0,0,0)" stroke="none">[Messaging API,</tspan></tspan></tspan><tspan class="TextParagraph" font-family="Arimo, sans-serif" font-size="423px" font-weight="400"><tspan class="TextPosition" x="5535" y="9249"><tspan fill="rgb(0,0,0)" stroke="none">Presence API,</tspan></tspan></tspan><tspan class="TextParagraph" font-family="Arimo, sans-serif" font-size="423px" font-weight="400"><tspan class="TextPosition" x="5808" y="9723"><tspan fill="rgb(0,0,0)" stroke="none">Roster API]</tspan></tspan></tspan></text>
      </g>
     </g>
     <g class="com.sun.star.drawing.TextShape">
      <g id="id11">
       <text class="TextShape"><tspan class="TextParagraph" font-family="Arimo, sans-serif" font-size="494px" font-weight="400"><tspan class="TextPosition" x="10117" y="7174"><tspan fill="rgb(0,0,0)" stroke="none">oSDK MSRP</tspan></tspan></tspan><tspan class="TextParagraph" font-family="Arimo, sans-serif" font-size="494px" font-weight="400"><tspan class="TextPosition" x="10737" y="7729"><tspan fill="rgb(0,0,0)" stroke="none">module</tspan></tspan></tspan><tspan class="TextParagraph" font-family="Arimo, sans-serif" font-size="423px" font-weight="400"><tspan class="TextPosition" x="9980" y="8775"><tspan fill="rgb(0,0,0)" stroke="none">[Filetransfer API]</tspan></tspan></tspan></text>
      </g>
     </g>
     <g class="com.sun.star.drawing.CustomShape">
      <g id="id12">
       <g>
        <defs>
         <pattern id="pattern1" x="9400" y="6600" width="4301" height="7201" patternUnits="userSpaceOnUse">
          <g transform="translate(-9400,-6600)">
           <line fill="rgb(0,0,0)" stroke="rgb(0,0,0)" x1="9400" y1="7259" x2="10059" y2="6600"/>
           <line fill="rgb(0,0,0)" stroke="rgb(0,0,0)" x1="9400" y1="7970" x2="10770" y2="6600"/>
           <line fill="rgb(0,0,0)" stroke="rgb(0,0,0)" x1="9400" y1="8681" x2="11481" y2="6600"/>
           <line fill="rgb(0,0,0)" stroke="rgb(0,0,0)" x1="9400" y1="9392" x2="12192" y2="6600"/>
           <line fill="rgb(0,0,0)" stroke="rgb(0,0,0)" x1="9400" y1="10103" x2="12903" y2="6600"/>
           <line fill="rgb(0,0,0)" stroke="rgb(0,0,0)" x1="9400" y1="10814" x2="13614" y2="6600"/>
           <line fill="rgb(0,0,0)" stroke="rgb(0,0,0)" x1="9400" y1="11525" x2="13700" y2="7225"/>
           <line fill="rgb(0,0,0)" stroke="rgb(0,0,0)" x1="9400" y1="12236" x2="13700" y2="7936"/>
           <line fill="rgb(0,0,0)" stroke="rgb(0,0,0)" x1="9400" y1="12947" x2="13700" y2="8647"/>
           <line fill="rgb(0,0,0)" stroke="rgb(0,0,0)" x1="9400" y1="13658" x2="13700" y2="9358"/>
           <line fill="rgb(0,0,0)" stroke="rgb(0,0,0)" x1="9969" y1="13800" x2="13700" y2="10069"/>
           <line fill="rgb(0,0,0)" stroke="rgb(0,0,0)" x1="10680" y1="13800" x2="13700" y2="10780"/>
           <line fill="rgb(0,0,0)" stroke="rgb(0,0,0)" x1="11391" y1="13800" x2="13700" y2="11491"/>
           <line fill="rgb(0,0,0)" stroke="rgb(0,0,0)" x1="12102" y1="13800" x2="13700" y2="12202"/>
           <line fill="rgb(0,0,0)" stroke="rgb(0,0,0)" x1="12813" y1="13800" x2="13700" y2="12913"/>
           <line fill="rgb(0,0,0)" stroke="rgb(0,0,0)" x1="13524" y1="13800" x2="13700" y2="13624"/>
          </g>
         </pattern>
        </defs>
        <path style="fill:url(#pattern1)" d="M 11550,13800 L 9400,13800 9400,6600 13700,6600 13700,13800 11550,13800 Z"/>
       </g>
       <path fill="none" stroke="rgb(0,153,255)" d="M 11550,13800 L 9400,13800 9400,6600 13700,6600 13700,13800 11550,13800 Z"/>
      </g>
     </g>
     <g class="com.sun.star.drawing.CustomShape">
      <g id="id13">
       <g>
        <defs>
         <pattern id="pattern2" x="14300" y="4600" width="11501" height="9501" patternUnits="userSpaceOnUse">
          <g transform="translate(-14300,-4600)">
           <line fill="rgb(0,0,0)" stroke="rgb(0,0,0)" x1="14300" y1="5259" x2="14959" y2="4600"/>
           <line fill="rgb(0,0,0)" stroke="rgb(0,0,0)" x1="14300" y1="5970" x2="15670" y2="4600"/>
           <line fill="rgb(0,0,0)" stroke="rgb(0,0,0)" x1="14300" y1="6681" x2="16381" y2="4600"/>
           <line fill="rgb(0,0,0)" stroke="rgb(0,0,0)" x1="14300" y1="7392" x2="17092" y2="4600"/>
           <line fill="rgb(0,0,0)" stroke="rgb(0,0,0)" x1="14300" y1="8103" x2="17803" y2="4600"/>
           <line fill="rgb(0,0,0)" stroke="rgb(0,0,0)" x1="14300" y1="8814" x2="18514" y2="4600"/>
           <line fill="rgb(0,0,0)" stroke="rgb(0,0,0)" x1="14300" y1="9525" x2="19225" y2="4600"/>
           <line fill="rgb(0,0,0)" stroke="rgb(0,0,0)" x1="14300" y1="10236" x2="19936" y2="4600"/>
           <line fill="rgb(0,0,0)" stroke="rgb(0,0,0)" x1="14300" y1="10947" x2="20647" y2="4600"/>
           <line fill="rgb(0,0,0)" stroke="rgb(0,0,0)" x1="14300" y1="11658" x2="21358" y2="4600"/>
           <line fill="rgb(0,0,0)" stroke="rgb(0,0,0)" x1="14300" y1="12369" x2="22069" y2="4600"/>
           <line fill="rgb(0,0,0)" stroke="rgb(0,0,0)" x1="14300" y1="13080" x2="22780" y2="4600"/>
           <line fill="rgb(0,0,0)" stroke="rgb(0,0,0)" x1="14300" y1="13791" x2="23491" y2="4600"/>
           <line fill="rgb(0,0,0)" stroke="rgb(0,0,0)" x1="14702" y1="14100" x2="24202" y2="4600"/>
           <line fill="rgb(0,0,0)" stroke="rgb(0,0,0)" x1="15413" y1="14100" x2="24913" y2="4600"/>
           <line fill="rgb(0,0,0)" stroke="rgb(0,0,0)" x1="16124" y1="14100" x2="25624" y2="4600"/>
           <line fill="rgb(0,0,0)" stroke="rgb(0,0,0)" x1="16835" y1="14100" x2="25800" y2="5135"/>
           <line fill="rgb(0,0,0)" stroke="rgb(0,0,0)" x1="17546" y1="14100" x2="25800" y2="5846"/>
           <line fill="rgb(0,0,0)" stroke="rgb(0,0,0)" x1="18257" y1="14100" x2="25800" y2="6557"/>
           <line fill="rgb(0,0,0)" stroke="rgb(0,0,0)" x1="18968" y1="14100" x2="25800" y2="7268"/>
           <line fill="rgb(0,0,0)" stroke="rgb(0,0,0)" x1="19679" y1="14100" x2="25800" y2="7979"/>
           <line fill="rgb(0,0,0)" stroke="rgb(0,0,0)" x1="20390" y1="14100" x2="25800" y2="8690"/>
           <line fill="rgb(0,0,0)" stroke="rgb(0,0,0)" x1="21101" y1="14100" x2="25800" y2="9401"/>
           <line fill="rgb(0,0,0)" stroke="rgb(0,0,0)" x1="21812" y1="14100" x2="25800" y2="10112"/>
           <line fill="rgb(0,0,0)" stroke="rgb(0,0,0)" x1="22523" y1="14100" x2="25800" y2="10823"/>
           <line fill="rgb(0,0,0)" stroke="rgb(0,0,0)" x1="23234" y1="14100" x2="25800" y2="11534"/>
           <line fill="rgb(0,0,0)" stroke="rgb(0,0,0)" x1="23945" y1="14100" x2="25800" y2="12245"/>
           <line fill="rgb(0,0,0)" stroke="rgb(0,0,0)" x1="24656" y1="14100" x2="25800" y2="12956"/>
           <line fill="rgb(0,0,0)" stroke="rgb(0,0,0)" x1="25367" y1="14100" x2="25800" y2="13667"/>
          </g>
         </pattern>
        </defs>
        <path style="fill:url(#pattern2)" d="M 20050,14100 L 14300,14100 14300,4600 25800,4600 25800,14100 20050,14100 Z"/>
       </g>
       <path fill="none" stroke="rgb(0,153,255)" d="M 20050,14100 L 14300,14100 14300,4600 25800,4600 25800,14100 20050,14100 Z"/>
      </g>
     </g>
     <g class="com.sun.star.drawing.TextShape">
      <g id="id14">
       <text class="TextShape"><tspan class="TextParagraph" font-family="Arimo, sans-serif" font-size="494px" font-weight="400"><tspan class="TextPosition" x="18255" y="5674"><tspan fill="rgb(0,0,0)" stroke="none">oSDP OneAPI SDK</tspan></tspan></tspan></text>
      </g>
     </g>
     <g class="com.sun.star.drawing.TextShape">
      <g id="id15">
       <text class="TextShape"><tspan class="TextParagraph" font-family="Arimo, sans-serif" font-size="494px" font-weight="400"><tspan class="TextPosition" x="15435" y="7174"><tspan fill="rgb(0,0,0)" stroke="none">oSDK </tspan></tspan><tspan class="TextPosition" x="15547" y="7729"><tspan fill="rgb(0,0,0)" stroke="none">SMS</tspan></tspan></tspan><tspan class="TextParagraph" font-family="Arimo, sans-serif" font-size="494px" font-weight="400"><tspan class="TextPosition" x="15270" y="8284"><tspan fill="rgb(0,0,0)" stroke="none">module</tspan></tspan></tspan></text>
      </g>
     </g>
     <g class="com.sun.star.drawing.TextShape">
      <g id="id16">
       <text class="TextShape"><tspan class="TextParagraph" font-family="Arimo, sans-serif" font-size="423px" font-weight="400"><tspan class="TextPosition" x="15083" y="12410"><tspan fill="rgb(0,0,0)" stroke="none">[SMS API]</tspan></tspan></tspan></text>
      </g>
     </g>
     <g class="com.sun.star.drawing.TextShape">
      <g id="id17">
       <text class="TextShape"><tspan class="TextParagraph" font-family="Arimo, sans-serif" font-size="494px" font-weight="400"><tspan class="TextPosition" x="18303" y="7174"><tspan fill="rgb(0,0,0)" stroke="none">oSDK </tspan></tspan><tspan class="TextPosition" x="18013" y="7729"><tspan fill="rgb(0,0,0)" stroke="none">Location</tspan></tspan></tspan><tspan class="TextParagraph" font-family="Arimo, sans-serif" font-size="494px" font-weight="400"><tspan class="TextPosition" x="18137" y="8284"><tspan fill="rgb(0,0,0)" stroke="none">module</tspan></tspan></tspan></text>
      </g>
     </g>
     <g class="com.sun.star.drawing.TextShape">
      <g id="id18">
       <text class="TextShape"><tspan class="TextParagraph" font-family="Arimo, sans-serif" font-size="494px" font-weight="400"><tspan class="TextPosition" x="21303" y="7158"><tspan fill="rgb(0,0,0)" stroke="none">oSDK </tspan></tspan><tspan class="TextPosition" x="20974" y="7713"><tspan fill="rgb(0,0,0)" stroke="none">Payment</tspan></tspan></tspan><tspan class="TextParagraph" font-family="Arimo, sans-serif" font-size="494px" font-weight="400"><tspan class="TextPosition" x="21137" y="8268"><tspan fill="rgb(0,0,0)" stroke="none">module</tspan></tspan></tspan></text>
      </g>
     </g>
     <g class="com.sun.star.drawing.TextShape">
      <g id="id19">
       <text class="TextShape"><tspan class="TextParagraph" font-family="Arimo, sans-serif" font-size="423px" font-weight="400"><tspan class="TextPosition" x="18087" y="12110"><tspan fill="rgb(0,0,0)" stroke="none">[Location </tspan></tspan><tspan class="TextPosition" x="18548" y="12584"><tspan fill="rgb(0,0,0)" stroke="none">API]</tspan></tspan></tspan></text>
      </g>
     </g>
     <g class="com.sun.star.drawing.TextShape">
      <g id="id20">
       <text class="TextShape"><tspan class="TextParagraph" font-family="Arimo, sans-serif" font-size="423px" font-weight="400"><tspan class="TextPosition" x="21053" y="12110"><tspan fill="rgb(0,0,0)" stroke="none">[Payment</tspan></tspan></tspan><tspan class="TextParagraph" font-family="Arimo, sans-serif" font-size="423px" font-weight="400"><tspan class="TextPosition" x="21548" y="12584"><tspan fill="rgb(0,0,0)" stroke="none">API]</tspan></tspan></tspan></text>
      </g>
     </g>
     <g class="com.sun.star.drawing.TextShape">
      <g id="id21">
       <text class="TextShape"><tspan class="TextParagraph" font-family="Arimo, sans-serif" font-size="494px" font-weight="400"><tspan class="TextPosition" x="24329" y="10074"><tspan fill="rgb(0,0,0)" stroke="none">...</tspan></tspan></tspan></text>
      </g>
     </g>
     <g class="com.sun.star.drawing.CustomShape">
      <g id="id22">
       <path fill="none" stroke="rgb(0,153,255)" d="M 7000,14100 L 0,14100 0,4600 14000,4600 14000,14100 7000,14100 Z"/>
      </g>
     </g>
     <g class="com.sun.star.drawing.TextShape">
      <g id="id23">
       <text class="TextShape"><tspan class="TextParagraph" font-family="Arimo, sans-serif" font-size="494px" font-weight="400"><tspan class="TextPosition" x="4171" y="5668"><tspan fill="rgb(0,0,0)" stroke="none">External libraries wrappers</tspan></tspan></tspan></text>
      </g>
     </g>
     <g class="com.sun.star.drawing.CustomShape">
      <g id="id24">
       <g>
        <defs>
         <pattern id="pattern3" x="26100" y="4600" width="3601" height="9501" patternUnits="userSpaceOnUse">
          <g transform="translate(-26100,-4600)">
           <line fill="rgb(0,0,0)" stroke="rgb(0,0,0)" x1="26100" y1="5259" x2="26759" y2="4600"/>
           <line fill="rgb(0,0,0)" stroke="rgb(0,0,0)" x1="26100" y1="5970" x2="27470" y2="4600"/>
           <line fill="rgb(0,0,0)" stroke="rgb(0,0,0)" x1="26100" y1="6681" x2="28181" y2="4600"/>
           <line fill="rgb(0,0,0)" stroke="rgb(0,0,0)" x1="26100" y1="7392" x2="28892" y2="4600"/>
           <line fill="rgb(0,0,0)" stroke="rgb(0,0,0)" x1="26100" y1="8103" x2="29603" y2="4600"/>
           <line fill="rgb(0,0,0)" stroke="rgb(0,0,0)" x1="26100" y1="8814" x2="29700" y2="5214"/>
           <line fill="rgb(0,0,0)" stroke="rgb(0,0,0)" x1="26100" y1="9525" x2="29700" y2="5925"/>
           <line fill="rgb(0,0,0)" stroke="rgb(0,0,0)" x1="26100" y1="10236" x2="29700" y2="6636"/>
           <line fill="rgb(0,0,0)" stroke="rgb(0,0,0)" x1="26100" y1="10947" x2="29700" y2="7347"/>
           <line fill="rgb(0,0,0)" stroke="rgb(0,0,0)" x1="26100" y1="11658" x2="29700" y2="8058"/>
           <line fill="rgb(0,0,0)" stroke="rgb(0,0,0)" x1="26100" y1="12369" x2="29700" y2="8769"/>
           <line fill="rgb(0,0,0)" stroke="rgb(0,0,0)" x1="26100" y1="13080" x2="29700" y2="9480"/>
           <line fill="rgb(0,0,0)" stroke="rgb(0,0,0)" x1="26100" y1="13791" x2="29700" y2="10191"/>
           <line fill="rgb(0,0,0)" stroke="rgb(0,0,0)" x1="26502" y1="14100" x2="29700" y2="10902"/>
           <line fill="rgb(0,0,0)" stroke="rgb(0,0,0)" x1="27213" y1="14100" x2="29700" y2="11613"/>
           <line fill="rgb(0,0,0)" stroke="rgb(0,0,0)" x1="27924" y1="14100" x2="29700" y2="12324"/>
           <line fill="rgb(0,0,0)" stroke="rgb(0,0,0)" x1="28635" y1="14100" x2="29700" y2="13035"/>
           <line fill="rgb(0,0,0)" stroke="rgb(0,0,0)" x1="29346" y1="14100" x2="29700" y2="13746"/>
          </g>
         </pattern>
        </defs>
        <path style="fill:url(#pattern3)" d="M 27900,14100 L 26100,14100 26100,4600 29700,4600 29700,14100 27900,14100 Z"/>
       </g>
       <path fill="none" stroke="rgb(0,153,255)" d="M 27900,14100 L 26100,14100 26100,4600 29700,4600 29700,14100 27900,14100 Z"/>
      </g>
     </g>
     <g class="com.sun.star.drawing.TextShape">
      <g id="id25">
       <text class="TextShape"><tspan class="TextParagraph" font-family="Arimo, sans-serif" font-size="494px" font-weight="400"><tspan class="TextPosition" x="27442" y="5174"><tspan fill="rgb(0,0,0)" stroke="none">TAS </tspan></tspan></tspan><tspan class="TextParagraph" font-family="Arimo, sans-serif" font-size="494px" font-weight="400"><tspan class="TextPosition" x="27269" y="5729"><tspan fill="rgb(0,0,0)" stroke="none">Client </tspan></tspan></tspan><tspan class="TextParagraph" font-family="Arimo, sans-serif" font-size="494px" font-weight="400"><tspan class="TextPosition" x="27394" y="6284"><tspan fill="rgb(0,0,0)" stroke="none">SDK </tspan></tspan></tspan><tspan class="TextParagraph" font-family="Arimo, sans-serif" font-size="494px" font-weight="400"><tspan class="TextPosition" x="27036" y="6839"><tspan fill="rgb(0,0,0)" stroke="none">modules</tspan></tspan></tspan></text>
      </g>
     </g>
     <g class="com.sun.star.drawing.CustomShape">
      <g id="id26">
       <path fill="none" stroke="rgb(0,153,255)" d="M 14850,4300 L 0,4300 0,2300 29700,2300 29700,4300 14850,4300 Z"/>
       <text class="TextShape"><tspan class="TextParagraph" font-family="Arimo, sans-serif" font-size="494px" font-weight="400"><tspan class="TextPosition" x="10075" y="2998"><tspan fill="rgb(0,0,0)" stroke="none">oSDK Client module (client utility methods) </tspan></tspan></tspan><tspan class="TextParagraph" font-family="Arimo, sans-serif" font-size="423px" font-weight="400"><tspan class="TextPosition" x="13883" y="3963"><tspan fill="rgb(0,0,0)" stroke="none">[Core API]</tspan></tspan></tspan></text>
      </g>
     </g>
     <g class="com.sun.star.drawing.TextShape">
      <g id="id27">
       <text class="TextShape"><tspan class="TextParagraph" font-family="Arimo, sans-serif" font-size="423px" font-weight="400"><tspan class="TextPosition" x="27001" y="12410"><tspan fill="rgb(0,0,0)" stroke="none">[TAS API]</tspan></tspan></tspan></text>
      </g>
     </g>
     <g class="com.sun.star.drawing.CustomShape">
      <g id="id28">
       <path fill="none" stroke="rgb(0,153,255)" d="M 14850,16400 L 0,16400 0,14400 29700,14400 29700,16400 14850,16400 Z"/>
       <text class="TextShape"><tspan class="TextParagraph" font-family="Arimo, sans-serif" font-size="494px" font-weight="400"><tspan class="TextPosition" x="9180" y="15098"><tspan fill="rgb(0,0,0)" stroke="none">oSDK Auth module (authorization &amp; authentication) </tspan></tspan></tspan><tspan class="TextParagraph" font-family="Arimo, sans-serif" font-size="423px" font-weight="400"><tspan class="TextPosition" x="12300" y="16063"><tspan fill="rgb(0,0,0)" stroke="none">[Core API, Connection API]</tspan></tspan></tspan></text>
      </g>
     </g>
     <g class="com.sun.star.drawing.CustomShape">
      <g id="id29">
       <path fill="rgb(0,184,255)" stroke="none" d="M 14850,2000 L 0,2000 0,0 29700,0 29700,2000 14850,2000 Z"/>
       <path fill="none" stroke="rgb(0,153,255)" d="M 14850,2000 L 0,2000 0,0 29700,0 29700,2000 14850,2000 Z"/>
       <text class="TextShape"><tspan class="TextParagraph" font-family="Arimo, sans-serif" font-size="494px" font-weight="400"><tspan class="TextPosition" x="12069" y="1172"><tspan fill="rgb(0,0,0)" stroke="none">Web-application (oClient)</tspan></tspan></tspan></text>
      </g>
     </g>
     <g class="com.sun.star.drawing.CustomShape">
      <g id="id30">
       <path fill="none" stroke="rgb(0,153,255)" d="M 14850,18700 L 0,18700 0,16700 29700,16700 29700,18700 14850,18700 Z"/>
       <text class="TextShape"><tspan class="TextParagraph" font-family="Arimo, sans-serif" font-size="494px" font-weight="400"><tspan class="TextPosition" x="10253" y="17872"><tspan fill="rgb(0,0,0)" stroke="none">oSDK internal utilities, core module object</tspan></tspan></tspan></text>
      </g>
     </g>
     <g class="com.sun.star.drawing.CustomShape">
      <g id="id31">
       <path fill="none" stroke="rgb(0,153,255)" d="M 15950,13800 L 14600,13800 14600,6600 17300,6600 17300,13800 15950,13800 Z"/>
      </g>
     </g>
     <g class="com.sun.star.drawing.CustomShape">
      <g id="id32">
       <path fill="none" stroke="rgb(0,153,255)" d="M 18950,13800 L 17600,13800 17600,6600 20300,6600 20300,13800 18950,13800 Z"/>
      </g>
     </g>
     <g class="com.sun.star.drawing.CustomShape">
      <g id="id33">
       <path fill="none" stroke="rgb(0,153,255)" d="M 21950,13800 L 20600,13800 20600,6600 23300,6600 23300,13800 21950,13800 Z"/>
      </g>
     </g>
     <g class="com.sun.star.drawing.CustomShape">
      <g id="id34">
       <path fill="none" stroke="rgb(0,153,255)" d="M 24550,13800 L 23600,13800 23600,6600 25500,6600 25500,13800 24550,13800 Z"/>
      </g>
     </g>
    </g>
   </g>
  </g>
 </g>
</svg>